<?xml version="1.0" encoding="UTF-8" standalone="no"?>
<!DOCTYPE svg PUBLIC "-//W3C//DTD SVG 1.1//EN" "http://www.w3.org/Graphics/SVG/1.1/DTD/svg11.dtd">
<svg width="100%" height="100%" viewBox="0 0 1024 1024" version="1.1" xmlns="http://www.w3.org/2000/svg" xmlns:xlink="http://www.w3.org/1999/xlink" xml:space="preserve" xmlns:serif="http://www.serif.com/" style="fill-rule:evenodd;clip-rule:evenodd;stroke-linejoin:round;stroke-miterlimit:2;">
    <g transform="matrix(1,0,0,1,7.05444,2.20439)">
        <g transform="matrix(1.54497,0,0,1.54497,487.466,24.1623)">
            <path d="M0,0C1.65,1.409 3.299,2.82 4.945,4.234C6.271,5.373 7.598,6.509 8.93,7.641C16.126,13.825 22.845,20.46 29.012,27.676C30.538,29.46 32.086,31.224 33.645,32.98C85.328,91.552 114.006,170.668 117.176,248.078C116.894,276.99 116.894,276.99 129.375,301.625C131.951,303.583 133.13,304.024 136.438,304.625C141.701,303.702 146.122,302.576 149.402,298.077C153.301,290.649 154.188,283.464 155,275.188C156.325,261.797 159.413,250.354 166.563,238.875C166.936,238.243 167.309,237.612 167.693,236.961C169.742,233.597 171.635,231.091 175,229C175.026,229.946 175.052,230.892 175.078,231.867C175.492,242.605 177.368,252.602 180,263C180.264,264.112 180.529,265.225 180.801,266.371C184.559,280.922 190.982,294.76 196.746,308.598C206.065,331.045 214.929,353.668 219.528,377.609C219.96,379.795 220.449,381.957 220.961,384.125C231.53,432.247 217.413,490.148 191.593,531.239C179.95,549.038 165.767,564.917 149,578C148.45,578.432 147.899,578.864 147.332,579.31C126.304,595.695 96.323,613.119 69,614C71.499,612.334 73.153,611.502 75.922,610.59C91.124,605.406 103.806,598.6 116,588C117.338,586.879 117.338,586.879 118.703,585.734C130.031,575.925 138.202,564.308 145,551C145.343,550.334 145.686,549.668 146.04,548.982C164.444,512.538 160.117,477.009 147.875,439.563C146.145,434.308 144.387,429.062 142.615,423.821C138.577,411.865 136.578,401.54 136,389C135.071,390.136 134.158,391.285 133.25,392.438C132.74,393.076 132.229,393.714 131.703,394.371C126.369,402.605 125.141,410.474 124.223,420.092C123.409,427.355 121.813,431.031 116.75,436.375C113.128,438.515 110.048,438.899 106,438C100.692,434.733 98.089,430.815 96,425C94.024,416.45 93.742,407.987 93.625,399.25C93.054,377.175 88.71,356.98 82,336C81.783,335.319 81.566,334.638 81.342,333.936C80.272,330.608 79.151,327.301 78,324C76.981,321.006 75.983,318.006 75,315C74.646,313.921 74.291,312.842 73.926,311.73C73.558,310.582 73.191,309.433 72.813,308.25C72.468,307.183 72.124,306.115 71.77,305.016C71.048,302.19 70.844,299.897 71,297L69,297C68.884,297.856 68.768,298.712 68.648,299.594C67.979,303.111 66.891,306.154 65.625,309.5C62.097,319.339 61.138,329.663 60,340C56.365,338.788 56.195,338.059 54.477,334.766C54.015,333.889 53.554,333.012 53.079,332.108C52.599,331.165 52.119,330.222 51.625,329.25C51.131,328.284 50.637,327.319 50.128,326.323C34.63,295.653 30.656,260.501 41.357,227.552C42.147,225.184 42.963,222.827 43.793,220.473C45.055,217.455 45.055,217.455 45,216C18.957,239.927 -1.387,276.359 -3.157,312.172C-3.485,323.736 -3.48,335.11 -1.453,346.516C-0.838,351.246 -0.77,355.922 -0.75,360.688C-0.741,361.563 -0.732,362.438 -0.723,363.34C-0.727,364.16 -0.73,364.979 -0.734,365.824C-0.737,366.557 -0.739,367.29 -0.741,368.046C-1,370 -1,370 -3,373C-6.162,373 -8.307,372.568 -10.781,370.539C-20.322,360.287 -22.033,349.071 -22.563,335.625C-22.606,334.603 -22.649,333.581 -22.693,332.527C-22.799,330.018 -22.901,327.509 -23,325C-31.706,342.469 -34.525,358.918 -30.5,378.125C-26.513,397.159 -29.392,413.461 -40,430C-41.572,432.167 -43.155,434.05 -45,436L-46,436C-46.009,435.28 -46.019,434.561 -46.028,433.82C-46.308,416.719 -46.837,402.856 -56,388C-56.17,389.232 -56.34,390.465 -56.516,391.734C-56.76,393.406 -57.005,395.078 -57.25,396.75C-57.36,397.556 -57.469,398.361 -57.582,399.191C-59.307,410.724 -63.672,420.923 -68.813,431.313C-69.883,433.517 -70.953,435.721 -72.023,437.926C-73.726,441.408 -75.439,444.884 -77.164,448.355C-81.565,457.326 -84.492,466.361 -87,476C-87.248,476.856 -87.495,477.712 -87.75,478.594C-93.574,501.565 -86.695,527.182 -77,548C-76.68,548.692 -76.36,549.384 -76.031,550.097C-62.437,578.886 -36.528,599.94 -7,611C-3.69,612.102 -0.374,613.114 3,614L3,615C-5.226,614.6 -12.601,612.98 -20.438,610.5C-21.568,610.145 -22.699,609.791 -23.865,609.426C-51.876,600.392 -75.901,585.436 -97,565C-97.532,564.494 -98.064,563.987 -98.613,563.465C-137.835,526.084 -155.737,471.624 -157.23,418.289C-158,372.625 -143.897,333.354 -122.313,293.625C-106.499,264.498 -96.129,236.292 -95,203C-72.775,223.268 -68.301,260.03 -67,288C-32.116,229.156 -5.604,163.308 2,95C2.103,94.139 2.206,93.279 2.312,92.392C5.542,64.902 6.463,34.474 0.398,7.344C-0.025,4.855 -0.066,2.52 0,0Z" style="fill:rgb(2,158,220);fill-rule:nonzero;"/>
        </g>
        <g transform="matrix(1.54497,0,0,1.54497,556.989,354.785)">
            <path d="M0,0C0.99,0.495 0.99,0.495 2,1C1.403,2.632 1.403,2.632 0.793,4.297C-11.287,37.654 -12.245,72.904 2.871,105.621C7.407,117.217 7.407,117.217 15,126C15.026,124.947 15.052,123.894 15.078,122.809C15.575,108.665 18.836,96.211 24,83L26,83C26.254,83.955 26.508,84.91 26.77,85.895C27.485,88.587 28.205,91.278 28.926,93.969C29.561,96.341 30.183,98.715 30.793,101.094C31.918,105.419 33.16,109.558 34.875,113.688C39.135,124.021 42.055,134.78 44.688,145.625C44.89,146.447 45.092,147.268 45.301,148.115C48.448,161.47 49.321,174.641 49.566,188.32C49.929,206.217 49.929,206.217 58.25,221.5C61.881,223.48 65.011,223.913 69,223C72.822,220.875 75.339,218.034 77,214C77.429,211.723 77.429,211.723 77.605,209.289C80.192,183.91 80.192,183.91 89.727,175.633C90.477,175.094 91.227,174.555 92,174C92.014,175.03 92.028,176.06 92.043,177.121C92.09,178.56 92.138,179.999 92.188,181.438C92.193,182.106 92.199,182.774 92.205,183.463C92.731,196.368 98.378,209.285 102.454,221.432C116.689,263.936 119.478,298.815 99.531,340.035C86.222,365.729 62.004,387.276 34.5,396.5C33.764,396.731 33.027,396.962 32.268,397.2C30.498,397.756 28.746,398.373 27,399C26.67,399.66 26.34,400.32 26,401C22.32,401.906 18.512,402.201 14.75,402.625C13.599,402.755 12.447,402.886 11.261,403.02C2.398,403.934 -6.405,404.293 -15.313,404.313C-17.07,404.32 -17.07,404.32 -18.862,404.329C-26.727,404.265 -34.263,403.397 -42,402L-42,400C-42.804,399.905 -42.804,399.905 -43.625,399.809C-63.929,396.636 -82.168,383.549 -97,370C-97.81,369.273 -98.619,368.546 -99.453,367.797C-121.842,346.66 -134.394,314.658 -135.473,284.248C-135.728,260.905 -126.635,240.633 -116.114,220.286C-108.266,205.008 -103.15,190.21 -102,173C-93.908,180.527 -91.07,191.858 -90.488,202.543C-90.416,204.757 -90.358,206.972 -90.313,209.188C-90.278,210.33 -90.244,211.473 -90.209,212.65C-90.127,215.433 -90.058,218.216 -90,221C-85.119,214.215 -81.085,207.787 -78,200C-77.679,199.246 -77.358,198.492 -77.027,197.715C-72.861,186.417 -74.451,173.674 -76.917,162.183C-80.622,143.788 -77.973,125.99 -68,110L-67,110C-66.97,110.982 -66.97,110.982 -66.94,111.984C-66.844,114.99 -66.735,117.995 -66.625,121C-66.594,122.03 -66.563,123.06 -66.531,124.121C-66.106,135.238 -63.814,146.112 -56.414,154.879C-53.408,157.557 -52.119,158 -48,158C-46.261,154.523 -46.81,150.581 -46.813,146.75C-46.812,145.379 -46.812,145.379 -46.811,143.981C-46.849,139.027 -47.124,134.326 -48,129.438C-53.089,98.537 -46.125,68.049 -31,41C-30.462,40.03 -30.462,40.03 -29.914,39.04C-23.298,27.226 -15.198,17.261 -6.043,7.289C-3.935,4.927 -1.957,2.489 0,0Z" style="fill:rgb(155,214,242);fill-rule:nonzero;"/>
        </g>
        <g transform="matrix(1.58068,0,0,1.58348,204.231,584.794)">
            <path d="M0,0L2,0C2.026,1.186 2.052,2.372 2.078,3.594C2.55,18.775 3.757,36.459 14.941,48.004C16.562,49.415 18.273,50.722 20,52C22.173,49.827 21.889,45.211 22.313,42.188C23.456,34.415 25.117,27.333 28,20L29,20C29.015,20.592 29.029,21.184 29.044,21.794C29.597,42.053 32.2,61.326 37,81C37.194,81.804 37.387,82.608 37.586,83.436C39.996,93.351 42.758,102.692 47,112C47.522,113.228 48.04,114.457 48.555,115.688C68.854,163.881 104.551,200.657 153,221C153.719,221.302 154.438,221.605 155.179,221.917C164.804,225.88 174.579,228.84 184.688,231.313C185.672,231.555 186.656,231.798 187.67,232.047C202.425,235.483 216.977,236.406 232.063,236.375C232.914,236.375 233.765,236.376 234.642,236.376C247.621,236.356 259.997,235.454 272.683,232.526C274.961,232.009 277.242,231.561 279.539,231.137C286.258,229.972 286.258,229.972 292.711,227.852C295,227 295,227 298,228C271.249,241.639 242.603,251.116 213,256C212.126,256.152 211.253,256.305 210.353,256.462C196.626,258.801 183.017,259.288 169.125,259.313C168.31,259.316 167.494,259.32 166.654,259.323C150.832,259.361 135.33,257.989 119.813,254.813C118.766,254.599 117.719,254.385 116.64,254.165C98.988,250.424 82.187,244.979 66,237C64.914,236.47 64.914,236.47 63.806,235.93C26.898,217.746 26.898,217.746 21,203C21.534,203.182 22.067,203.364 22.617,203.551C24.21,204.088 25.807,204.615 27.406,205.133C29.005,205.667 30.592,206.238 32.156,206.867C40.796,210.062 49.933,209.251 59,209L59,207C57.117,205.563 55.242,204.257 53.262,202.965C52.666,202.567 52.071,202.17 51.457,201.76C49.538,200.479 47.614,199.208 45.688,197.938C14.341,177.246 -8.274,153.731 -16.34,116.103C-17.971,107.99 -18.35,100.288 -18,92C-15.021,95.577 -13.228,99.516 -11.25,103.688C-8.138,110.075 -4.778,115.689 0,121C0.804,121.908 1.609,122.815 2.438,123.75C7.057,127.806 12.166,130.994 18,133C15.986,119.952 11.168,108.895 4.67,97.553C1.244,91.55 -1.616,85.497 -4,79C-4.294,78.215 -4.588,77.43 -4.891,76.621C-8.605,66.152 -9.406,56.006 -9.375,44.938C-9.375,44.252 -9.375,43.566 -9.374,42.86C-9.327,27.323 -6.674,14.196 0,0Z" style="fill:rgb(36,93,167);fill-rule:nonzero;"/>
        </g>
        <g transform="matrix(1.54497,0,0,1.54497,699.126,245.093)">
            <path d="M0,0L1,0C1.039,1.615 1.039,1.615 1.078,3.262C1.469,14.698 3.516,24.218 8.043,34.805C13.775,48.457 17.122,61.43 12.438,76C9.244,83.285 5.006,90.695 -1,96L-3,96C-3.039,94.204 -3.039,94.204 -3.078,92.371C-3.437,80.867 -4.896,70.713 -8.786,59.792C-11.112,52.894 -11.505,46.5 -11.438,39.25C-11.429,38.101 -11.421,36.953 -11.412,35.769C-11.141,22.119 -7.917,11.346 0,0Z" style="fill:rgb(8,157,218);fill-rule:nonzero;"/>
        </g>
        <g transform="matrix(1.54497,0,0,1.54497,654.322,571.08)">
            <path d="M0,0L1,0C1.086,0.92 1.173,1.841 1.262,2.789C2.022,9.636 3.005,15.503 5.625,21.938C8.96,30.63 9.779,40.639 6.813,49.625C4.843,53.292 2.86,55.99 0,59L-1,59C-1.014,58.175 -1.028,57.35 -1.043,56.5C-1.336,49.414 -2.264,43.486 -4.563,36.813C-8.32,25.698 -8.106,15.462 -2.91,4.754C-1.996,3.137 -1.006,1.562 0,0Z" style="fill:rgb(151,213,242);fill-rule:nonzero;"/>
        </g>
        <g transform="matrix(1.54497,0,0,1.54497,654.322,571.08)">
            <path d="M0,0L1,0C1.375,3.25 1.375,3.25 1,7C-2,9.438 -2,9.438 -5,11C-3.778,6.957 -2.372,3.507 0,0Z" style="fill:rgb(128,208,240);fill-rule:nonzero;"/>
        </g>
    </g>
</svg>
